<svg width="8" height="12" viewBox="0 0 8 12" fill="none" xmlns="http://www.w3.org/2000/svg">
<path d="M1.80268 11.704L6.75335 6.75336C6.86098 6.64574 6.93703 6.52915 6.98151 6.40359C7.026 6.27803 7.0486 6.1435 7.04932 6C7.04932 5.8565 7.02672 5.72197 6.98151 5.59641C6.93631 5.47085 6.86026 5.35426 6.75335 5.24664L1.80268 0.295964C1.60537 0.0986543 1.35425 0 1.04932 0C0.744384 0 0.493263 0.0986543 0.295954 0.295964C0.0986443 0.493273 -1.09673e-05 0.744394 -1.09673e-05 1.04933C-1.09673e-05 1.35426 0.0986443 1.60538 0.295954 1.80269L4.49326 6L0.295954 10.1973C0.0986443 10.3946 -1.09673e-05 10.6457 -1.09673e-05 10.9507C-1.09673e-05 11.2556 0.0986443 11.5067 0.295954 11.704C0.493263 11.9013 0.744384 12 1.04932 12C1.35425 12 1.60537 11.9013 1.80268 11.704Z" fill="#B8B8B8"/>
</svg>
