<svg width="8" height="12" viewBox="0 0 8 12" fill="none" xmlns="http://www.w3.org/2000/svg">
<path d="M5.24664 11.704L0.295964 6.75336C0.18834 6.64574 0.112287 6.52915 0.0678024 6.40359C0.0233181 6.27803 0.000717489 6.1435 0 6C0 5.8565 0.0226006 5.72197 0.0678024 5.59641C0.113004 5.47085 0.189058 5.35426 0.295964 5.24664L5.24664 0.295964C5.44395 0.0986543 5.69507 0 6 0C6.30493 0 6.55605 0.0986543 6.75336 0.295964C6.95067 0.493273 7.04933 0.744394 7.04933 1.04933C7.04933 1.35426 6.95067 1.60538 6.75336 1.80269L2.55605 6L6.75336 10.1973C6.95067 10.3946 7.04933 10.6457 7.04933 10.9507C7.04933 11.2556 6.95067 11.5067 6.75336 11.704C6.55605 11.9013 6.30493 12 6 12C5.69507 12 5.44395 11.9013 5.24664 11.704Z" fill="#B8B8B8"/>
</svg>
