<svg width="14" height="14" viewBox="0 0 14 14" fill="none" xmlns="http://www.w3.org/2000/svg">
<g opacity="0.8">
<path d="M13.5172 1.89734V3.86216H0V1.89734C0.0049386 1.51787 0.160185 1.15584 0.431688 0.890673C0.70319 0.625506 1.06878 0.478848 1.44827 0.482869H2.41378V1.44838C2.41378 1.83248 2.56636 2.20086 2.83797 2.47246C3.10957 2.74406 3.47794 2.89665 3.86205 2.89665C4.24615 2.89665 4.61452 2.74406 4.88613 2.47246C5.15773 2.20086 5.31032 1.83248 5.31032 1.44838V0.482869H8.20685V1.44838C8.20685 1.83248 8.35944 2.20086 8.63104 2.47246C8.90264 2.74406 9.27101 2.89665 9.65512 2.89665C10.0392 2.89665 10.4076 2.74406 10.6792 2.47246C10.9508 2.20086 11.1034 1.83248 11.1034 1.44838V0.482869H12.0689C12.4484 0.478848 12.814 0.625506 13.0855 0.890673C13.357 1.15584 13.5122 1.51787 13.5172 1.89734Z" fill="white"/>
<path d="M0 4.82751V12.5854C0.0049386 12.9649 0.160185 13.3269 0.431688 13.5921C0.70319 13.8572 1.06878 14.0039 1.44827 13.9999H12.0689C12.4484 14.0039 12.814 13.8572 13.0855 13.5921C13.357 13.3269 13.5122 12.9649 13.5172 12.5854V4.82751H0ZM4.3448 11.5861C4.34443 11.714 4.29345 11.8366 4.203 11.927C4.11255 12.0175 3.98997 12.0685 3.86205 12.0689H2.89654C2.76861 12.0685 2.64604 12.0175 2.55558 11.927C2.46513 11.8366 2.41415 11.714 2.41378 11.5861V10.6206C2.41415 10.4927 2.46513 10.3701 2.55558 10.2796C2.64604 10.1892 2.76861 10.1382 2.89654 10.1378H3.86205C3.98997 10.1382 4.11255 10.1892 4.203 10.2796C4.29345 10.3701 4.34443 10.4927 4.3448 10.6206V11.5861ZM4.3448 8.20681C4.34443 8.33473 4.29345 8.4573 4.203 8.54776C4.11255 8.63821 3.98997 8.68919 3.86205 8.68956H2.89654C2.76861 8.68919 2.64604 8.63821 2.55558 8.54776C2.46513 8.4573 2.41415 8.33473 2.41378 8.20681V7.24129C2.41415 7.11337 2.46513 6.9908 2.55558 6.90034C2.64604 6.80989 2.76861 6.75891 2.89654 6.75854H3.86205C3.98997 6.75891 4.11255 6.80989 4.203 6.90034C4.29345 6.9908 4.34443 7.11337 4.3448 7.24129V8.20681ZM7.72409 11.5861C7.72372 11.714 7.67274 11.8366 7.58229 11.927C7.49184 12.0175 7.36926 12.0685 7.24134 12.0689H6.27583C6.14791 12.0685 6.02533 12.0175 5.93487 11.927C5.84442 11.8366 5.79344 11.714 5.79307 11.5861V10.6206C5.79344 10.4927 5.84442 10.3701 5.93487 10.2796C6.02533 10.1892 6.14791 10.1382 6.27583 10.1378H7.24134C7.36926 10.1382 7.49184 10.1892 7.58229 10.2796C7.67274 10.3701 7.72372 10.4927 7.72409 10.6206V11.5861ZM7.72409 8.20681C7.72372 8.33473 7.67274 8.4573 7.58229 8.54776C7.49184 8.63821 7.36926 8.68919 7.24134 8.68956H6.27583C6.14791 8.68919 6.02533 8.63821 5.93487 8.54776C5.84442 8.4573 5.79344 8.33473 5.79307 8.20681V7.24129C5.79344 7.11337 5.84442 6.9908 5.93487 6.90034C6.02533 6.80989 6.14791 6.75891 6.27583 6.75854H7.24134C7.36926 6.75891 7.49184 6.80989 7.58229 6.90034C7.67274 6.9908 7.72372 7.11337 7.72409 7.24129V8.20681ZM11.1034 8.20681C11.103 8.33473 11.052 8.4573 10.9616 8.54776C10.8711 8.63821 10.7486 8.68919 10.6206 8.68956H9.65512C9.5272 8.68919 9.40462 8.63821 9.31417 8.54776C9.22371 8.4573 9.17273 8.33473 9.17236 8.20681V7.24129C9.17273 7.11337 9.22371 6.9908 9.31417 6.90034C9.40462 6.80989 9.5272 6.75891 9.65512 6.75854H10.6206C10.7486 6.75891 10.8711 6.80989 10.9616 6.90034C11.052 6.9908 11.103 7.11337 11.1034 7.24129V8.20681Z" fill="white"/>
<path d="M4.34485 0.482756V1.44827C4.34485 1.5763 4.29398 1.69909 4.20345 1.78963C4.11292 1.88016 3.99012 1.93102 3.86209 1.93102C3.73405 1.93102 3.61126 1.88016 3.52073 1.78963C3.4302 1.69909 3.37933 1.5763 3.37933 1.44827V0.482756C3.37933 0.354721 3.4302 0.23193 3.52073 0.141396C3.61126 0.0508616 3.73405 0 3.86209 0C3.99012 0 4.11292 0.0508616 4.20345 0.141396C4.29398 0.23193 4.34485 0.354721 4.34485 0.482756Z" fill="white"/>
<path d="M10.1379 0.482756V1.44827C10.1379 1.5763 10.087 1.69909 9.99651 1.78963C9.90598 1.88016 9.78318 1.93102 9.65515 1.93102C9.52711 1.93102 9.40432 1.88016 9.31379 1.78963C9.22326 1.69909 9.17239 1.5763 9.17239 1.44827V0.482756C9.17239 0.354721 9.22326 0.23193 9.31379 0.141396C9.40432 0.0508616 9.52711 0 9.65515 0C9.78318 0 9.90598 0.0508616 9.99651 0.141396C10.087 0.23193 10.1379 0.354721 10.1379 0.482756Z" fill="white"/>
</g>
</svg>
