<svg width="17" height="18" viewBox="0 0 17 18" fill="none" xmlns="http://www.w3.org/2000/svg">
<path d="M4.5 10.8C4.245 10.8 4.0311 10.7136 3.8583 10.5408C3.6855 10.368 3.5994 10.1544 3.6 9.9C3.6 9.645 3.6864 9.4311 3.8592 9.2583C4.032 9.0855 4.2456 8.9994 4.5 9C4.755 9 4.9689 9.0864 5.1417 9.2592C5.3145 9.432 5.4006 9.6456 5.4 9.9C5.4 10.155 5.3136 10.3689 5.1408 10.5417C4.968 10.7145 4.7544 10.8006 4.5 10.8ZM8.1 10.8C7.845 10.8 7.6311 10.7136 7.4583 10.5408C7.2855 10.368 7.1994 10.1544 7.2 9.9C7.2 9.645 7.2864 9.4311 7.4592 9.2583C7.632 9.0855 7.8456 8.9994 8.1 9C8.355 9 8.5689 9.0864 8.7417 9.2592C8.9145 9.432 9.0006 9.6456 9 9.9C9 10.155 8.9136 10.3689 8.7408 10.5417C8.568 10.7145 8.3544 10.8006 8.1 10.8ZM11.7 10.8C11.445 10.8 11.2311 10.7136 11.0583 10.5408C10.8855 10.368 10.7994 10.1544 10.8 9.9C10.8 9.645 10.8864 9.4311 11.0592 9.2583C11.232 9.0855 11.4456 8.9994 11.7 9C11.955 9 12.1689 9.0864 12.3417 9.2592C12.5145 9.432 12.6006 9.6456 12.6 9.9C12.6 10.155 12.5136 10.3689 12.3408 10.5417C12.168 10.7145 11.9544 10.8006 11.7 10.8ZM1.8 18C1.305 18 0.881101 17.8236 0.528301 17.4708C0.175501 17.118 -0.000598472 16.6944 1.52801e-06 16.2V3.6C1.52801e-06 3.105 0.176402 2.6811 0.529201 2.3283C0.882001 1.9755 1.3056 1.7994 1.8 1.8H2.7V0H4.5V1.8H11.7V0H13.5V1.8H14.4C14.895 1.8 15.3189 1.9764 15.6717 2.3292C16.0245 2.682 16.2006 3.1056 16.2 3.6V16.2C16.2 16.695 16.0236 17.1189 15.6708 17.4717C15.318 17.8245 14.8944 18.0006 14.4 18H1.8ZM1.8 16.2H14.4V7.2H1.8V16.2ZM1.8 5.4H14.4V3.6H1.8V5.4Z" fill="#1ADDF1"/>
</svg>
