<svg width="11" height="15" viewBox="0 0 11 15" fill="none" xmlns="http://www.w3.org/2000/svg">
<path d="M7.04901 10.0665C7.12233 9.75962 7.26853 9.46919 7.47124 9.22642L10.6657 5.44657V3.28174H7.79413C7.56739 3.28174 7.38391 3.09826 7.38391 2.87152V0H1.23065C0.552043 0 0 0.552043 0 1.23065V12.7714C0 13.45 0.552043 14.0021 1.23065 14.0021H9.435C10.1136 14.0021 10.6657 13.45 10.6657 12.7714V11.8017L10.6124 11.8647C10.4109 12.1047 10.1509 12.2982 9.86124 12.4244L8.35419 13.0778C7.92942 13.2612 7.43773 13.1963 7.07387 12.8915C6.71452 12.5899 6.55869 12.1192 6.66765 11.6625L7.04901 10.0665ZM2.05109 2.4613H6.15326C6.38 2.4613 6.56348 2.64478 6.56348 2.87152C6.56348 3.09826 6.38 3.28174 6.15326 3.28174H2.05109C1.82435 3.28174 1.64087 3.09826 1.64087 2.87152C1.64087 2.64478 1.82435 2.4613 2.05109 2.4613ZM2.05109 4.94996H8.61457C8.84131 4.94996 9.02478 5.13343 9.02478 5.36017C9.02478 5.58692 8.84131 5.77039 8.61457 5.77039H2.05109C1.82435 5.77039 1.64087 5.58692 1.64087 5.36017C1.64087 5.13343 1.82435 4.94996 2.05109 4.94996ZM5.33283 10.693H2.05109C1.82435 10.693 1.64087 10.5095 1.64087 10.2828C1.64087 10.056 1.82435 9.87257 2.05109 9.87257H5.33283C5.55957 9.87257 5.74304 10.056 5.74304 10.2828C5.74304 10.5095 5.55957 10.693 5.33283 10.693ZM2.05109 8.2317C1.82435 8.2317 1.64087 8.04822 1.64087 7.82148C1.64087 7.59474 1.82435 7.41126 2.05109 7.41126H6.9737C7.20044 7.41126 7.38391 7.59474 7.38391 7.82148C7.38391 8.04822 7.20044 8.2317 6.9737 8.2317H2.05109Z" fill="white"/>
</svg>
