<svg width="44" height="43" viewBox="0 0 44 43" fill="none" xmlns="http://www.w3.org/2000/svg">
<path d="M29.6247 11.5784H14.3753L22 7.66053L29.6247 11.5784ZM29.6247 20.1949H42.3031V39.2911H29.6243L29.6247 20.1949ZM33.4507 26.7693H38.4777V24.0867H33.4502L33.4507 26.7693ZM38.4777 31.9457H33.4502V34.6282H38.4772L38.4777 31.9457ZM14.3762 39.2908H1.69692V20.1949H14.3757L14.3762 39.2908ZM10.5502 31.9457H5.52278V34.6282H10.5498L10.5502 31.9457ZM5.52324 26.7693H10.5502V24.0867H5.52278L5.52324 26.7693ZM29.6247 18.9099H42.3031V15.7635C42.303 15.6836 42.2712 15.6069 42.2146 15.5503C42.1581 15.4938 42.0814 15.4619 42.0014 15.4619H29.6243L29.6247 18.9099ZM19.7075 34.9367V39.2911H24.2925V34.9367C24.2925 34.3287 24.051 33.7456 23.621 33.3157C23.1911 32.8857 22.608 32.6442 22 32.6442C21.392 32.6442 20.8089 32.8857 20.379 33.3157C19.949 33.7456 19.7075 34.3287 19.7075 34.9367ZM28.3394 12.8636H15.6606V18.9099H28.3394V12.8636ZM14.3757 15.4619H1.99861C1.91863 15.4619 1.84195 15.4938 1.78539 15.5503C1.72884 15.6069 1.69702 15.6836 1.69692 15.7635V18.9099H14.3757V15.4619ZM43.0414 40.576H0.958645C0.704396 40.576 0.460561 40.677 0.28078 40.8568C0.101 41.0366 0 41.2804 0 41.5347C0 41.7889 0.101 42.0328 0.28078 42.2126C0.460561 42.3923 0.704396 42.4933 0.958645 42.4933H43.0414C43.2956 42.4933 43.5394 42.3923 43.7192 42.2126C43.899 42.0328 44 41.7889 44 41.5347C44 41.2804 43.899 41.0366 43.7192 40.8568C43.5394 40.677 43.2956 40.576 43.0414 40.576ZM25.5774 39.2911V34.9367C25.5774 33.9879 25.2005 33.078 24.5296 32.4071C23.8587 31.7362 22.9488 31.3593 22 31.3593C21.0512 31.3593 20.1413 31.7362 19.4704 32.4071C18.7995 33.078 18.4226 33.9879 18.4226 34.9367V39.2911H15.6606V20.1949H28.3394V39.2911H25.5774ZM24.5135 24.0867H19.4865V26.7693H24.5135V24.0867ZM22.6425 6.54604V3.39798C23.0229 3.30259 23.4136 3.25393 23.8059 3.25306C24.508 3.25182 25.2003 3.41845 25.825 3.73904C26.2256 3.93868 26.6626 4.05485 27.1095 4.08049C27.5564 4.10612 28.0038 4.0407 28.4246 3.88818V1.33035C27.3575 1.60859 26.2256 1.48726 25.2417 0.989208C24.8411 0.78974 24.4041 0.673694 23.9573 0.648105C23.5106 0.622515 23.0632 0.687915 22.6425 0.84034V0.642462C22.6425 0.47207 22.5748 0.308658 22.4543 0.188173C22.3338 0.0676878 22.1704 0 22 0C21.8296 0 21.6662 0.0676878 21.5457 0.188173C21.4252 0.308658 21.3575 0.47207 21.3575 0.642462V6.54604L22 6.21563L22.6425 6.54604Z" fill="white"/>
</svg>
