<svg width="22" height="18" viewBox="0 0 22 18" fill="none" xmlns="http://www.w3.org/2000/svg">
<path d="M18.86 10.0842V16.6342C18.86 16.8707 18.7735 17.0754 18.6007 17.2482C18.4278 17.4211 18.2232 17.5075 17.9866 17.5075H12.7467V12.2675H9.25334V17.5075H4.01337C3.77684 17.5075 3.57216 17.4211 3.39931 17.2482C3.22646 17.0754 3.14004 16.8707 3.14004 16.6342V10.0842C3.14004 10.0751 3.14232 10.0615 3.14686 10.0433C3.15141 10.0251 3.15369 10.0114 3.15369 10.0023L11 3.53425L18.8463 10.0023C18.8554 10.0205 18.86 10.0478 18.86 10.0842ZM21.903 9.14266L21.0569 10.1524C20.9841 10.2343 20.8886 10.2844 20.7704 10.3026H20.7294C20.6112 10.3026 20.5156 10.2707 20.4429 10.207L11 2.33343L1.55713 10.207C1.44797 10.2798 1.3388 10.3116 1.22963 10.3026C1.11137 10.2844 1.01585 10.2343 0.943074 10.1524L0.0970365 9.14266C0.0242591 9.05169 -0.00758098 8.9448 0.0015162 8.82199C0.0106134 8.69917 0.0606478 8.60138 0.15162 8.5286L9.96292 0.35479C10.254 0.118263 10.5997 0 11 0C11.4003 0 11.746 0.118263 12.0371 0.35479L15.3666 3.13853V0.477602C15.3666 0.350241 15.4076 0.245624 15.4895 0.163749C15.5713 0.0818746 15.6759 0.0409373 15.8033 0.0409373H18.4233C18.5507 0.0409373 18.6553 0.0818746 18.7371 0.163749C18.819 0.245624 18.86 0.350241 18.86 0.477602V6.04507L21.8484 8.5286C21.9394 8.60138 21.9894 8.69917 21.9985 8.82199C22.0076 8.9448 21.9757 9.05169 21.903 9.14266Z" fill="white"/>
</svg>
