<svg width="13" height="14" viewBox="0 0 13 14" fill="none" xmlns="http://www.w3.org/2000/svg">
<path opacity="0.8" fill-rule="evenodd" clip-rule="evenodd" d="M2.46094 3.69141C2.46094 1.65596 4.1169 0 6.15234 0C8.18779 0 9.84375 1.65596 9.84375 3.69141C9.84375 5.72685 8.18779 7.38281 6.15234 7.38281C4.1169 7.38281 2.46094 5.72685 2.46094 3.69141ZM6.97266 8.20312C8.39478 8.20312 9.73454 8.76824 10.7452 9.79439C11.7508 10.8155 12.3047 12.1634 12.3047 13.5898C12.3047 13.8164 12.121 14 11.8945 14H0.410156C0.183641 14 0 13.8164 0 13.5898C0 12.1634 0.553848 10.8155 1.55952 9.79439C2.57015 8.76824 3.90994 8.20312 5.33203 8.20312H6.97266Z" fill="white"/>
</svg>
