<svg width="44" height="45" viewBox="0 0 44 45" fill="none" xmlns="http://www.w3.org/2000/svg">
<path fill-rule="evenodd" clip-rule="evenodd" d="M15.0668 2.89682H28.9333C29.1358 2.89682 29.3011 3.06207 29.3011 3.26465V26.3598H25.3405V19.0464H18.8695V26.3598H14.699V3.26465C14.699 3.06207 14.8643 2.89682 15.0668 2.89682ZM29.0201 35.099H43.5399C43.8278 35.099 44.0431 34.8419 43.9926 34.5586C43.3392 30.8916 40.1349 28.1074 36.28 28.1074C32.4251 28.1074 29.2208 30.8916 28.5674 34.5586C28.5169 34.842 28.7322 35.099 29.0201 35.099ZM7.72005 19.2652C9.90779 19.2652 11.6814 21.0388 11.6814 23.2264C11.6814 25.4142 9.90779 27.1877 7.72005 27.1877C5.53231 27.1877 3.75874 25.4142 3.75874 23.2264C3.75874 21.0388 5.53231 19.2652 7.72005 19.2652ZM36.28 19.2652C38.4678 19.2652 40.2414 21.0388 40.2414 23.2264C40.2414 25.4142 38.4678 27.1877 36.28 27.1877C34.0923 27.1877 32.3188 25.4142 32.3188 23.2264C32.3188 21.0388 34.0923 19.2652 36.28 19.2652ZM0.460068 35.099H14.9799C15.2678 35.099 15.4831 34.8419 15.4326 34.5586C14.7792 30.8916 11.5749 28.1074 7.72005 28.1074C3.86513 28.1074 0.660809 30.8916 0.00736496 34.5587C-0.0431193 34.842 0.172243 35.099 0.460068 35.099ZM36.2801 10.4981C36.2801 10.2955 36.1149 10.1302 35.9123 10.1302H30.7724V26.3598H31.8422C31.2158 25.4744 30.8475 24.3934 30.8475 23.2264C30.8475 21.5551 31.6029 20.06 32.7907 19.0634V17.4977C32.7907 17.3964 32.8732 17.3138 32.9746 17.3138H34.0781C34.1794 17.3138 34.262 17.3964 34.262 17.4977V18.1816C34.8859 17.9316 35.567 17.7939 36.2801 17.7939V10.4981ZM32.7906 13.7049C32.7906 13.6035 32.8731 13.5209 32.9745 13.5209H34.078C34.1793 13.5209 34.2619 13.6035 34.2619 13.7049V15.1994C34.2619 15.3008 34.1793 15.3833 34.078 15.3833H32.9745C32.8731 15.3833 32.7906 15.3008 32.7906 15.1994V13.7049ZM7.72005 10.4981V17.7939C8.43317 17.7939 9.1143 17.9316 9.73822 18.1816V17.4977C9.73822 17.3964 9.8208 17.3138 9.92213 17.3138H11.0256C11.127 17.3138 11.2095 17.3964 11.2095 17.4977V19.0634C12.3971 20.06 13.1527 21.555 13.1527 23.2264C13.1527 24.3934 12.7844 25.4743 12.158 26.3598H13.2278V10.1302H8.08787C7.88529 10.1302 7.72005 10.2955 7.72005 10.4981ZM11.2095 13.7049V15.1994C11.2095 15.3008 11.127 15.3833 11.0256 15.3833H9.92213C9.8208 15.3833 9.73822 15.3008 9.73822 15.1994V13.7049C9.73822 13.6035 9.8208 13.5209 9.92213 13.5209H11.0256C11.1269 13.5209 11.2095 13.6035 11.2095 13.7049ZM22.0001 28.3054C24.1878 28.3054 25.9614 30.0789 25.9614 32.2667C25.9614 34.4544 24.1878 36.2279 22.0001 36.2279C19.8124 36.2279 18.0389 34.4543 18.0389 32.2667C18.0389 30.079 19.8124 28.3054 22.0001 28.3054ZM14.7401 44.1392H29.2601C29.5479 44.1392 29.7633 43.8821 29.7128 43.5988C29.0593 39.9317 25.855 37.1476 22.0002 37.1476C18.1453 37.1476 14.9409 39.9317 14.2875 43.5989C14.2369 43.8822 14.4523 44.1392 14.7401 44.1392ZM26.592 0V1.42551H17.4715V0H26.592ZM17.4598 5.2545C17.3585 5.2545 17.2759 5.33707 17.2759 5.43841V6.54189C17.2759 6.64323 17.3585 6.7258 17.4598 6.7258H18.9544C19.0557 6.7258 19.1383 6.64323 19.1383 6.54189V5.43841C19.1383 5.33707 19.0557 5.2545 18.9544 5.2545H17.4598ZM25.0457 5.2545C24.9445 5.2545 24.8618 5.33707 24.8618 5.43841V6.54189C24.8618 6.64323 24.9444 6.7258 25.0457 6.7258H26.5403C26.6416 6.7258 26.7242 6.64323 26.7242 6.54189V5.43841C26.7242 5.33707 26.6416 5.2545 26.5403 5.2545H25.0457ZM21.2528 5.2545C21.1514 5.2545 21.0688 5.33707 21.0688 5.43841V6.54189C21.0688 6.64323 21.1514 6.7258 21.2528 6.7258H22.7473C22.8486 6.7258 22.9312 6.64323 22.9312 6.54189V5.43841C22.9312 5.33707 22.8487 5.2545 22.7473 5.2545H21.2528ZM17.4598 8.6386C17.3585 8.6386 17.2759 8.72117 17.2759 8.82251V9.92599C17.2759 10.0273 17.3585 10.1099 17.4598 10.1099H18.9544C19.0557 10.1099 19.1383 10.0273 19.1383 9.92599V8.82251C19.1383 8.72117 19.0557 8.6386 18.9544 8.6386H17.4598ZM25.0457 8.6386C24.9445 8.6386 24.8618 8.72117 24.8618 8.82251V9.92599C24.8618 10.0273 24.9444 10.1099 25.0457 10.1099H26.5403C26.6416 10.1099 26.7242 10.0273 26.7242 9.92599V8.82251C26.7242 8.72117 26.6416 8.6386 26.5403 8.6386H25.0457ZM21.2528 8.6386C21.1514 8.6386 21.0688 8.72117 21.0688 8.82251V9.92599C21.0688 10.0273 21.1514 10.1099 21.2528 10.1099H22.7473C22.8486 10.1099 22.9312 10.0273 22.9312 9.92599V8.82251C22.9312 8.72117 22.8487 8.6386 22.7473 8.6386H21.2528ZM17.4598 12.0226C17.3585 12.0226 17.2759 12.1052 17.2759 12.2065V13.31C17.2759 13.4113 17.3585 13.4939 17.4598 13.4939H18.9544C19.0557 13.4939 19.1383 13.4113 19.1383 13.31V12.2065C19.1383 12.1053 19.0557 12.0226 18.9544 12.0226H17.4598ZM25.0457 12.0226C24.9445 12.0226 24.8618 12.1052 24.8618 12.2065V13.31C24.8618 13.4113 24.9444 13.4939 25.0457 13.4939H26.5403C26.6416 13.4939 26.7242 13.4113 26.7242 13.31V12.2065C26.7242 12.1053 26.6416 12.0226 26.5403 12.0226H25.0457ZM21.2528 12.0226C21.1514 12.0226 21.0688 12.1052 21.0688 12.2065V13.31C21.0688 13.4113 21.1514 13.4939 21.2528 13.4939H22.7473C22.8486 13.4939 22.9312 13.4113 22.9312 13.31V12.2065C22.9312 12.1053 22.8487 12.0226 22.7473 12.0226H21.2528ZM17.4598 15.4067C17.3585 15.4067 17.2759 15.4893 17.2759 15.5906V16.6941C17.2759 16.7954 17.3585 16.878 17.4598 16.878H18.9544C19.0557 16.878 19.1383 16.7954 19.1383 16.6941V15.5906C19.1383 15.4893 19.0557 15.4067 18.9544 15.4067H17.4598ZM25.0457 15.4067C24.9445 15.4067 24.8618 15.4893 24.8618 15.5906V16.6941C24.8618 16.7954 24.9444 16.878 25.0457 16.878H26.5403C26.6416 16.878 26.7242 16.7954 26.7242 16.6941V15.5906C26.7242 15.4893 26.6416 15.4067 26.5403 15.4067H25.0457ZM21.2528 15.4067C21.1514 15.4067 21.0688 15.4893 21.0688 15.5906V16.6941C21.0688 16.7954 21.1514 16.878 21.2528 16.878H22.7473C22.8486 16.878 22.9312 16.7954 22.9312 16.6941V15.5906C22.9312 15.4893 22.8487 15.4067 22.7473 15.4067H21.2528Z" fill="white"/>
</svg>
