<svg width="20" height="20" viewBox="0 0 20 20" fill="none" xmlns="http://www.w3.org/2000/svg">
<path d="M8.55295 17.1059C10.4506 17.1055 12.2936 16.4702 13.7884 15.3012L18.4883 20.0011L20 18.4893L15.3002 13.7895C16.4698 12.2945 17.1054 10.4511 17.1059 8.55295C17.1059 3.83707 13.2688 0 8.55295 0C3.83707 0 0 3.83707 0 8.55295C0 13.2688 3.83707 17.1059 8.55295 17.1059ZM8.55295 2.13824C12.0907 2.13824 14.9677 5.01523 14.9677 8.55295C14.9677 12.0907 12.0907 14.9677 8.55295 14.9677C5.01523 14.9677 2.13824 12.0907 2.13824 8.55295C2.13824 5.01523 5.01523 2.13824 8.55295 2.13824Z" fill="white"/>
</svg>
